<svg width="16" height="17" viewBox="0 0 16 17" fill="none" xmlns="http://www.w3.org/2000/svg">
<path d="M11.1667 2.87301V1.83301C11.1667 1.55967 10.94 1.33301 10.6667 1.33301C10.3933 1.33301 10.1667 1.55967 10.1667 1.83301V2.83301H5.83332V1.83301C5.83332 1.55967 5.60666 1.33301 5.33332 1.33301C5.05999 1.33301 4.83332 1.55967 4.83332 1.83301V2.87301C3.03332 3.03967 2.15999 4.11301 2.02666 5.70634C2.01332 5.89967 2.17332 6.05967 2.35999 6.05967H13.64C13.8333 6.05967 13.9933 5.89301 13.9733 5.70634C13.84 4.11301 12.9667 3.03967 11.1667 2.87301Z" fill="#6A7B6A"/>
<path opacity="0.4" d="M13.3333 7.05957C13.7 7.05957 14 7.35957 14 7.72624V11.8329C14 13.8329 13 15.1662 10.6667 15.1662H5.33333C3 15.1662 2 13.8329 2 11.8329V7.72624C2 7.35957 2.3 7.05957 2.66667 7.05957H13.3333Z" fill="#6A7B6A"/>
<path d="M5.66667 10.4996C5.49333 10.4996 5.32 10.4263 5.19333 10.3063C5.07333 10.1796 5 10.0063 5 9.83292C5 9.65959 5.07333 9.48626 5.19333 9.3596C5.38 9.17293 5.67333 9.11291 5.92 9.21958C6.00667 9.25291 6.08 9.2996 6.14 9.3596C6.26 9.48626 6.33333 9.65959 6.33333 9.83292C6.33333 10.0063 6.26 10.1796 6.14 10.3063C6.01333 10.4263 5.84 10.4996 5.66667 10.4996Z" fill="#6A7B6A"/>
<path d="M7.99992 10.4996C7.82659 10.4996 7.65325 10.4263 7.52659 10.3063C7.40659 10.1796 7.33325 10.0063 7.33325 9.83292C7.33325 9.65959 7.40659 9.48626 7.52659 9.3596C7.58659 9.2996 7.65992 9.25291 7.74658 9.21958C7.99325 9.11291 8.28658 9.17293 8.47325 9.3596C8.59325 9.48626 8.66659 9.65959 8.66659 9.83292C8.66659 10.0063 8.59325 10.1796 8.47325 10.3063C8.43992 10.3329 8.40659 10.3596 8.37325 10.3862C8.33325 10.4129 8.29325 10.4329 8.25325 10.4463C8.21325 10.4663 8.17325 10.4796 8.13325 10.4863C8.08659 10.4929 8.04659 10.4996 7.99992 10.4996Z" fill="#6A7B6A"/>
<path d="M10.3334 10.5003C10.1601 10.5003 9.98675 10.427 9.86008 10.307C9.74008 10.1803 9.66675 10.007 9.66675 9.83367C9.66675 9.66033 9.74008 9.48701 9.86008 9.36034C9.92675 9.30034 9.99341 9.25366 10.0801 9.22032C10.2001 9.16699 10.3334 9.15366 10.4667 9.18033C10.5067 9.18699 10.5467 9.20032 10.5867 9.22032C10.6267 9.23366 10.6667 9.25368 10.7067 9.28034C10.7401 9.30701 10.7734 9.33367 10.8067 9.36034C10.9267 9.48701 11.0001 9.66033 11.0001 9.83367C11.0001 10.007 10.9267 10.1803 10.8067 10.307C10.7734 10.3337 10.7401 10.3603 10.7067 10.387C10.6667 10.4137 10.6267 10.4337 10.5867 10.447C10.5467 10.467 10.5067 10.4803 10.4667 10.487C10.4201 10.4937 10.3734 10.5003 10.3334 10.5003Z" fill="#6A7B6A"/>
<path d="M5.66667 12.8333C5.58 12.8333 5.49333 12.8134 5.41333 12.78C5.32667 12.7467 5.26 12.7 5.19333 12.64C5.07333 12.5133 5 12.34 5 12.1667C5 11.9933 5.07333 11.82 5.19333 11.6933C5.26 11.6333 5.32667 11.5867 5.41333 11.5533C5.53333 11.5 5.66667 11.4867 5.8 11.5133C5.84 11.52 5.88 11.5333 5.92 11.5533C5.96 11.5667 6 11.5867 6.04 11.6134C6.07333 11.64 6.10667 11.6667 6.14 11.6933C6.26 11.82 6.33333 11.9933 6.33333 12.1667C6.33333 12.34 6.26 12.5133 6.14 12.64C6.10667 12.6667 6.07333 12.7 6.04 12.72C6 12.7467 5.96 12.7667 5.92 12.78C5.88 12.8 5.84 12.8133 5.8 12.82C5.75333 12.8267 5.71333 12.8333 5.66667 12.8333Z" fill="#6A7B6A"/>
<path d="M7.99992 12.8338C7.82659 12.8338 7.65325 12.7604 7.52659 12.6404C7.40659 12.5138 7.33325 12.3404 7.33325 12.1671C7.33325 11.9938 7.40659 11.8205 7.52659 11.6938C7.77325 11.4471 8.22658 11.4471 8.47325 11.6938C8.59325 11.8205 8.66659 11.9938 8.66659 12.1671C8.66659 12.3404 8.59325 12.5138 8.47325 12.6404C8.34658 12.7604 8.17325 12.8338 7.99992 12.8338Z" fill="#6A7B6A"/>
<path d="M10.3334 12.8338C10.1601 12.8338 9.98675 12.7604 9.86008 12.6404C9.74008 12.5138 9.66675 12.3404 9.66675 12.1671C9.66675 11.9938 9.74008 11.8205 9.86008 11.6938C10.1067 11.4471 10.5601 11.4471 10.8067 11.6938C10.9267 11.8205 11.0001 11.9938 11.0001 12.1671C11.0001 12.3404 10.9267 12.5138 10.8067 12.6404C10.6801 12.7604 10.5067 12.8338 10.3334 12.8338Z" fill="#6A7B6A"/>
</svg>
