<svg width="24" height="25" viewBox="0 0 24 25" fill="none" xmlns="http://www.w3.org/2000/svg">
<path d="M16.75 4.06V2.5C16.75 2.09 16.41 1.75 16 1.75C15.59 1.75 15.25 2.09 15.25 2.5V4H8.74998V2.5C8.74998 2.09 8.40998 1.75 7.99998 1.75C7.58998 1.75 7.24998 2.09 7.24998 2.5V4.06C4.54998 4.31 3.23999 5.92 3.03999 8.31C3.01999 8.6 3.25999 8.84 3.53999 8.84H20.46C20.75 8.84 20.99 8.59 20.96 8.31C20.76 5.92 19.45 4.31 16.75 4.06Z" fill="#F1F3F2"/>
<path opacity="0.4" d="M20 10.3401C20.55 10.3401 21 10.7901 21 11.3401V17.5001C21 20.5001 19.5 22.5001 16 22.5001H8C4.5 22.5001 3 20.5001 3 17.5001V11.3401C3 10.7901 3.45 10.3401 4 10.3401H20Z" fill="#F1F3F2"/>
<path d="M8.5 15.4999C8.24 15.4999 7.98 15.3899 7.79 15.2099C7.61 15.0199 7.5 14.7599 7.5 14.4999C7.5 14.2399 7.61 13.9799 7.79 13.7899C8.07 13.5099 8.51 13.4199 8.88 13.5799C9.01 13.6299 9.12 13.6999 9.21 13.7899C9.39 13.9799 9.5 14.2399 9.5 14.4999C9.5 14.7599 9.39 15.0199 9.21 15.2099C9.02 15.3899 8.76 15.4999 8.5 15.4999Z" fill="#F1F3F2"/>
<path d="M12 15.4999C11.74 15.4999 11.48 15.3899 11.29 15.2099C11.11 15.0199 11 14.7599 11 14.4999C11 14.2399 11.11 13.9799 11.29 13.7899C11.38 13.6999 11.49 13.6299 11.62 13.5799C11.99 13.4199 12.43 13.5099 12.71 13.7899C12.89 13.9799 13 14.2399 13 14.4999C13 14.7599 12.89 15.0199 12.71 15.2099C12.66 15.2499 12.61 15.2899 12.56 15.3299C12.5 15.3699 12.44 15.3999 12.38 15.4199C12.32 15.4499 12.26 15.4699 12.2 15.4799C12.13 15.4899 12.07 15.4999 12 15.4999Z" fill="#F1F3F2"/>
<path d="M15.5 15.5C15.24 15.5 14.98 15.39 14.79 15.21C14.61 15.02 14.5 14.76 14.5 14.5C14.5 14.24 14.61 13.98 14.79 13.79C14.89 13.7 14.99 13.63 15.12 13.58C15.3 13.5 15.5 13.48 15.7 13.52C15.76 13.53 15.82 13.55 15.88 13.58C15.94 13.6 16 13.63 16.06 13.67C16.11 13.71 16.16 13.75 16.21 13.79C16.39 13.98 16.5 14.24 16.5 14.5C16.5 14.76 16.39 15.02 16.21 15.21C16.16 15.25 16.11 15.29 16.06 15.33C16 15.37 15.94 15.4 15.88 15.42C15.82 15.45 15.76 15.47 15.7 15.48C15.63 15.49 15.56 15.5 15.5 15.5Z" fill="#F1F3F2"/>
<path d="M8.5 19C8.37 19 8.24 18.97 8.12 18.92C7.99 18.87 7.89 18.8 7.79 18.71C7.61 18.52 7.5 18.26 7.5 18C7.5 17.74 7.61 17.48 7.79 17.29C7.89 17.2 7.99 17.13 8.12 17.08C8.3 17 8.5 16.98 8.7 17.02C8.76 17.03 8.82 17.05 8.88 17.08C8.94 17.1 9 17.13 9.06 17.17C9.11 17.21 9.16 17.25 9.21 17.29C9.39 17.48 9.5 17.74 9.5 18C9.5 18.26 9.39 18.52 9.21 18.71C9.16 18.75 9.11 18.8 9.06 18.83C9 18.87 8.94 18.9 8.88 18.92C8.82 18.95 8.76 18.97 8.7 18.98C8.63 18.99 8.57 19 8.5 19Z" fill="#F1F3F2"/>
<path d="M12 18.9999C11.74 18.9999 11.48 18.8899 11.29 18.7099C11.11 18.5199 11 18.2599 11 17.9999C11 17.7399 11.11 17.48 11.29 17.29C11.66 16.92 12.34 16.92 12.71 17.29C12.89 17.48 13 17.7399 13 17.9999C13 18.2599 12.89 18.5199 12.71 18.7099C12.52 18.8899 12.26 18.9999 12 18.9999Z" fill="#F1F3F2"/>
<path d="M15.5 18.9999C15.24 18.9999 14.98 18.8899 14.79 18.7099C14.61 18.5199 14.5 18.2599 14.5 17.9999C14.5 17.7399 14.61 17.48 14.79 17.29C15.16 16.92 15.84 16.92 16.21 17.29C16.39 17.48 16.5 17.7399 16.5 17.9999C16.5 18.2599 16.39 18.5199 16.21 18.7099C16.02 18.8899 15.76 18.9999 15.5 18.9999Z" fill="#F1F3F2"/>
</svg>
