<svg width="16" height="16" viewBox="0 0 16 16" fill="none" xmlns="http://www.w3.org/2000/svg">
<path d="M15.3332 2.00084C14.6948 2.45116 13.9879 2.79558 13.2398 3.02084C12.8383 2.55918 12.3047 2.23197 11.7112 2.08346C11.1177 1.93495 10.4928 1.97231 9.92122 2.19048C9.34962 2.40865 8.8588 2.79711 8.51516 3.30332C8.17152 3.80953 7.99164 4.40907 7.99984 5.02084V5.68751C6.82826 5.71789 5.66735 5.45805 4.62051 4.93114C3.57367 4.40423 2.67338 3.6266 1.99984 2.66751C1.99984 2.66751 -0.666829 8.66751 5.33317 11.3342C3.96019 12.2662 2.32461 12.7335 0.666504 12.6675C6.6665 16.0008 13.9998 12.6675 13.9998 5.00084C13.9992 4.81515 13.9814 4.62991 13.9465 4.44751C14.6269 3.77651 15.1071 2.92932 15.3332 2.00084Z" fill="#AEB7AE"/>
</svg>
