<svg width="16" height="16" viewBox="0 0 16 16" fill="none" xmlns="http://www.w3.org/2000/svg">
<path opacity="0.4" d="M13.7467 5.63366C13.0467 2.55366 10.3601 1.16699 8.00006 1.16699C8.00006 1.16699 8.00006 1.16699 7.9934 1.16699C5.64006 1.16699 2.94673 2.54699 2.24673 5.62699C1.46673 9.06699 3.5734 11.9803 5.48006 13.8137C6.18673 14.4937 7.0934 14.8337 8.00006 14.8337C8.90673 14.8337 9.8134 14.4937 10.5134 13.8137C12.4201 11.9803 14.5267 9.07366 13.7467 5.63366Z" fill="#6A7B6A"/>
<path d="M7.9999 8.97344C9.1597 8.97344 10.0999 8.03324 10.0999 6.87344C10.0999 5.71364 9.1597 4.77344 7.9999 4.77344C6.8401 4.77344 5.8999 5.71364 5.8999 6.87344C5.8999 8.03324 6.8401 8.97344 7.9999 8.97344Z" fill="#6A7B6A"/>
</svg>
