<svg width="16" height="17" viewBox="0 0 16 17" fill="none" xmlns="http://www.w3.org/2000/svg">
<path opacity="0.4" d="M7.99997 15.1664C11.1922 15.1664 13.78 12.5787 13.78 9.38645C13.78 6.19424 11.1922 3.60645 7.99997 3.60645C4.80776 3.60645 2.21997 6.19424 2.21997 9.38645C2.21997 12.5787 4.80776 15.1664 7.99997 15.1664Z" fill="#6A7B6A"/>
<path d="M8 9.66634C7.72667 9.66634 7.5 9.43967 7.5 9.16634V5.83301C7.5 5.55967 7.72667 5.33301 8 5.33301C8.27333 5.33301 8.5 5.55967 8.5 5.83301V9.16634C8.5 9.43967 8.27333 9.66634 8 9.66634Z" fill="#6A7B6A"/>
<path d="M9.9266 2.79967H6.07326C5.80659 2.79967 5.59326 2.58634 5.59326 2.31967C5.59326 2.05301 5.80659 1.83301 6.07326 1.83301H9.9266C10.1933 1.83301 10.4066 2.04634 10.4066 2.31301C10.4066 2.57967 10.1933 2.79967 9.9266 2.79967Z" fill="#6A7B6A"/>
</svg>
